HIERARCHY
ROOT newVegas:Hips
{
	OFFSET 0.000000 96.479958 0.000000
	CHANNELS 6 Xposition Yposition Zposition Xrotation Yrotation Zrotation
	JOINT newVegas:Pelvis
	{
		OFFSET 0.000000 0.000000 0.000000
		CHANNELS 3 Xrotation Yrotation Zrotation
		JOINT newVegas:LeftUpLeg
		{
			OFFSET 18.735201 -5.666702 -4.541200
			CHANNELS 3 Xrotation Yrotation Zrotation
			JOINT newVegas:LeftLeg
			{
				OFFSET -0.021200 -31.938179 0.493100
				CHANNELS 3 Xrotation Yrotation Zrotation
				JOINT newVegas:LeftFoot
				{
					OFFSET 0.021200 -31.938179 -4.336299
					CHANNELS 3 Xrotation Yrotation Zrotation
					JOINT newVegas:LeftToeBase
					{
						OFFSET 0.943001 -26.722000 15.023500
						CHANNELS 3 Xrotation Yrotation Zrotation
						End Site
						{
							OFFSET 0.000000 30.670183 0.000000
						}
					}
				}
				JOINT newVegas:Left_PantLeg
				{
					OFFSET 0.663870 -9.044666 -1.108900
					CHANNELS 3 Xrotation Yrotation Zrotation
					End Site
					{
						OFFSET 1.415995 20.635357 0.000000
					}
				}
			}
		}
		JOINT newVegas:RightUpLeg
		{
			OFFSET -18.735201 -5.666702 -4.541200
			CHANNELS 3 Xrotation Yrotation Zrotation
			JOINT newVegas:RightLeg
			{
				OFFSET 0.018946 -31.938133 0.493100
				CHANNELS 3 Xrotation Yrotation Zrotation
				JOINT newVegas:RightFoot
				{
					OFFSET -0.018946 -31.938126 -4.336299
					CHANNELS 3 Xrotation Yrotation Zrotation
					JOINT newVegas:RightToeBase
					{
						OFFSET -0.943001 -26.722004 15.023500
						CHANNELS 3 Xrotation Yrotation Zrotation
						End Site
						{
							OFFSET 0.000000 30.670187 0.000000
						}
					}
				}
				JOINT newVegas:Right_PantLeg
				{
					OFFSET -0.661674 -9.044716 -1.108900
					CHANNELS 3 Xrotation Yrotation Zrotation
					End Site
					{
						OFFSET -1.415958 20.635269 0.000000
					}
				}
			}
		}
	}
	JOINT newVegas:Spine
	{
		OFFSET 0.000000 10.199997 -0.299500
		CHANNELS 3 Xrotation Yrotation Zrotation
		JOINT newVegas:Spine1
		{
			OFFSET 0.000000 11.900002 -1.516600
			CHANNELS 3 Xrotation Yrotation Zrotation
			JOINT newVegas:Spine2
			{
				OFFSET 0.000000 13.600006 -2.842500
				CHANNELS 3 Xrotation Yrotation Zrotation
				JOINT newVegas:Neck
				{
					OFFSET 0.000000 9.624100 -2.890100
					CHANNELS 3 Xrotation Yrotation Zrotation
					JOINT newVegas:Head
					{
						OFFSET 0.000000 14.068802 -1.351900
						CHANNELS 3 Xrotation Yrotation Zrotation
						JOINT newVegas:Hair_Back
						{
							OFFSET 0.000000 3.231903 -17.524799
							CHANNELS 3 Xrotation Yrotation Zrotation
							End Site
							{
								OFFSET 0.000000 19.849884 0.000000
							}
						}
						JOINT newVegas:Hair_Front
						{
							OFFSET 0.000000 31.260406 4.573800
							CHANNELS 3 Xrotation Yrotation Zrotation
							JOINT newVegas:Hair_Front1
							{
								OFFSET 0.000000 2.284103 11.993300
								CHANNELS 3 Xrotation Yrotation Zrotation
								JOINT newVegas:Hair_Front2
								{
									OFFSET 0.000000 2.284103 11.993300
									CHANNELS 3 Xrotation Yrotation Zrotation
									End Site
									{
										OFFSET 0.000000 12.208862 0.000000
									}
								}
							}
						}
						JOINT newVegas:Jowel
						{
							OFFSET 0.000000 -7.458206 6.864100
							CHANNELS 3 Xrotation Yrotation Zrotation
							End Site
							{
								OFFSET 0.000000 19.849884 0.000000
							}
						}
					}
				}
				JOINT newVegas:LeftShoulder
				{
					OFFSET 15.263000 10.923401 -0.547700
					CHANNELS 3 Xrotation Yrotation Zrotation
					JOINT newVegas:LeftArm
					{
						OFFSET 25.438599 -2.830597 -13.032500
						CHANNELS 3 Xrotation Yrotation Zrotation
						JOINT newVegas:LeftForeArm
						{
							OFFSET 29.960503 0.000000 0.000000
							CHANNELS 3 Xrotation Yrotation Zrotation
							JOINT newVegas:LeftHand
							{
								OFFSET 27.849251 0.000000 0.000000
								CHANNELS 3 Xrotation Yrotation Zrotation
								JOINT newVegas:LeftHandThumb1
								{
									OFFSET 4.487587 -3.305161 6.305391
									CHANNELS 3 Xrotation Yrotation Zrotation
									JOINT newVegas:LeftHandThumb2
									{
										OFFSET 5.480453 -3.164139 3.164143
										CHANNELS 3 Xrotation Yrotation Zrotation
										JOINT newVegas:LeftHandThumb3
										{
											OFFSET 5.159721 -2.978973 2.978967
											CHANNELS 3 Xrotation Yrotation Zrotation
											End Site
											{
												OFFSET 2.494507 5.926697 1.738678
											}
										}
									}
								}
								JOINT newVegas:LeftHandIndex1
								{
									OFFSET 18.578728 -0.527832 5.208049
									CHANNELS 3 Xrotation Yrotation Zrotation
									JOINT newVegas:LeftHandIndex2
									{
										OFFSET 3.192009 0.000000 0.000000
										CHANNELS 3 Xrotation Yrotation Zrotation
										JOINT newVegas:LeftHandIndex3
										{
											OFFSET 3.835129 0.000000 0.000000
											CHANNELS 3 Xrotation Yrotation Zrotation
											End Site
											{
												OFFSET -0.034599 3.816971 0.371180
											}
										}
									}
								}
								JOINT newVegas:LeftHandMiddle1
								{
									OFFSET 18.476105 0.000000 0.000000
									CHANNELS 3 Xrotation Yrotation Zrotation
									JOINT newVegas:LeftHandMiddle2
									{
										OFFSET 3.324875 0.000000 0.000000
										CHANNELS 3 Xrotation Yrotation Zrotation
										JOINT newVegas:LeftHandMiddle3
										{
											OFFSET 4.596550 0.000000 0.000000
											CHANNELS 3 Xrotation Yrotation Zrotation
											End Site
											{
												OFFSET 0.057701 4.578827 0.399218
											}
										}
									}
								}
								JOINT newVegas:LeftHandRing1
								{
									OFFSET 17.732719 0.121887 -4.201567
									CHANNELS 3 Xrotation Yrotation Zrotation
									JOINT newVegas:LeftHandRing2
									{
										OFFSET 2.733170 0.000000 0.000000
										CHANNELS 3 Xrotation Yrotation Zrotation
										JOINT newVegas:LeftHandRing3
										{
											OFFSET 3.178268 0.000000 0.000000
											CHANNELS 3 Xrotation Yrotation Zrotation
											End Site
											{
												OFFSET 0.119102 3.170624 0.185394
											}
										}
									}
								}
								JOINT newVegas:LeftHandPinky1
								{
									OFFSET 15.989624 -0.606689 -7.535461
									CHANNELS 3 Xrotation Yrotation Zrotation
									JOINT newVegas:LeftHandPinky2
									{
										OFFSET 2.538986 0.000000 0.000000
										CHANNELS 3 Xrotation Yrotation Zrotation
										JOINT newVegas:LeftHandPinky3
										{
											OFFSET 2.593102 0.000000 0.000000
											CHANNELS 3 Xrotation Yrotation Zrotation
											End Site
											{
												OFFSET -0.150902 2.584198 0.152708
											}
										}
									}
								}
							}
							JOINT newVegas:Left_Sleeve
							{
								OFFSET 0.267448 -0.649796 0.577675
								CHANNELS 3 Xrotation Yrotation Zrotation
								End Site
								{
									OFFSET 0.000000 15.991241 0.000000
								}
							}
							JOINT newVegas:Left_CapeC
							{
								OFFSET 15.715958 -8.608795 -6.935905
								CHANNELS 3 Xrotation Yrotation Zrotation
								JOINT newVegas:Left_CapeC1
								{
									OFFSET 0.000000 -8.688499 0.000000
									CHANNELS 3 Xrotation Yrotation Zrotation
									End Site
									{
										OFFSET 0.000000 8.688499 0.000000
									}
								}
							}
						}
						JOINT newVegas:Left_CapeB
						{
							OFFSET 26.118385 -8.608795 -7.079235
							CHANNELS 3 Xrotation Yrotation Zrotation
							JOINT newVegas:Left_CapeB1
							{
								OFFSET 0.000000 -8.688499 0.000000
								CHANNELS 3 Xrotation Yrotation Zrotation
								End Site
								{
									OFFSET 0.000000 8.688499 0.000000
								}
							}
						}
						JOINT newVegas:Left_CapeA
						{
							OFFSET 5.115639 -8.608795 -10.395809
							CHANNELS 3 Xrotation Yrotation Zrotation
							JOINT newVegas:Left_CapeA1
							{
								OFFSET 0.000000 -8.688499 0.000000
								CHANNELS 3 Xrotation Yrotation Zrotation
								End Site
								{
									OFFSET 0.000000 8.688499 0.000000
								}
							}
						}
					}
				}
				JOINT newVegas:RightShoulder
				{
					OFFSET -15.263000 10.923401 -0.547700
					CHANNELS 3 Xrotation Yrotation Zrotation
					JOINT newVegas:RightArm
					{
						OFFSET -25.438599 -2.830597 -13.032500
						CHANNELS 3 Xrotation Yrotation Zrotation
						JOINT newVegas:RightForeArm
						{
							OFFSET -29.960503 0.000000 0.000000
							CHANNELS 3 Xrotation Yrotation Zrotation
							JOINT newVegas:RightHand
							{
								OFFSET -27.849251 0.000000 0.000000
								CHANNELS 3 Xrotation Yrotation Zrotation
								JOINT newVegas:RightHandThumb1
								{
									OFFSET -4.487587 -3.305161 6.305391
									CHANNELS 3 Xrotation Yrotation Zrotation
									JOINT newVegas:RightHandThumb2
									{
										OFFSET -5.480453 -3.164139 3.164143
										CHANNELS 3 Xrotation Yrotation Zrotation
										JOINT newVegas:RightHandThumb3
										{
											OFFSET -5.159721 -2.978973 2.978967
											CHANNELS 3 Xrotation Yrotation Zrotation
											End Site
											{
												OFFSET -2.494507 5.926697 1.738678
											}
										}
									}
								}
								JOINT newVegas:RightHandIndex1
								{
									OFFSET -18.578728 -0.527832 5.208049
									CHANNELS 3 Xrotation Yrotation Zrotation
									JOINT newVegas:RightHandIndex2
									{
										OFFSET -3.192009 0.000000 0.000000
										CHANNELS 3 Xrotation Yrotation Zrotation
										JOINT newVegas:RightHandIndex3
										{
											OFFSET -3.835129 0.000000 0.000000
											CHANNELS 3 Xrotation Yrotation Zrotation
											End Site
											{
												OFFSET 0.034599 3.816971 0.371180
											}
										}
									}
								}
								JOINT newVegas:RightHandMiddle1
								{
									OFFSET -18.476105 0.000000 0.000000
									CHANNELS 3 Xrotation Yrotation Zrotation
									JOINT newVegas:RightHandMiddle2
									{
										OFFSET -3.324875 0.000000 0.000000
										CHANNELS 3 Xrotation Yrotation Zrotation
										JOINT newVegas:RightHandMiddle3
										{
											OFFSET -4.596550 0.000000 0.000000
											CHANNELS 3 Xrotation Yrotation Zrotation
											End Site
											{
												OFFSET -0.057701 4.578827 0.399218
											}
										}
									}
								}
								JOINT newVegas:RightHandRing1
								{
									OFFSET -17.732719 0.121887 -4.201567
									CHANNELS 3 Xrotation Yrotation Zrotation
									JOINT newVegas:RightHandRing2
									{
										OFFSET -2.733170 0.000000 0.000000
										CHANNELS 3 Xrotation Yrotation Zrotation
										JOINT newVegas:RightHandRing3
										{
											OFFSET -3.178268 0.000000 0.000000
											CHANNELS 3 Xrotation Yrotation Zrotation
											End Site
											{
												OFFSET -0.119102 3.170624 0.185394
											}
										}
									}
								}
								JOINT newVegas:RightHandPinky1
								{
									OFFSET -15.989624 -0.606689 -7.535461
									CHANNELS 3 Xrotation Yrotation Zrotation
									JOINT newVegas:RightHandPinky2
									{
										OFFSET -2.538986 0.000000 0.000000
										CHANNELS 3 Xrotation Yrotation Zrotation
										JOINT newVegas:RightHandPinky3
										{
											OFFSET -2.593102 0.000000 0.000000
											CHANNELS 3 Xrotation Yrotation Zrotation
											End Site
											{
												OFFSET 0.150902 2.584198 0.152708
											}
										}
									}
								}
							}
							JOINT newVegas:Right_CapeC
							{
								OFFSET -15.715958 -8.608795 -6.935905
								CHANNELS 3 Xrotation Yrotation Zrotation
								JOINT newVegas:Right_CapeC1
								{
									OFFSET 0.000000 -8.688499 0.000000
									CHANNELS 3 Xrotation Yrotation Zrotation
									End Site
									{
										OFFSET 0.000000 8.688499 0.000000
									}
								}
							}
							JOINT newVegas:Right_Sleeve
							{
								OFFSET -0.267448 -0.649994 0.577675
								CHANNELS 3 Xrotation Yrotation Zrotation
								End Site
								{
									OFFSET 0.000000 15.991302 0.000000
								}
							}
						}
						JOINT newVegas:Right_CapeA
						{
							OFFSET -5.115540 -8.608795 -10.395824
							CHANNELS 3 Xrotation Yrotation Zrotation
							JOINT newVegas:Right_CapeA1
							{
								OFFSET 0.000000 -8.688499 0.000000
								CHANNELS 3 Xrotation Yrotation Zrotation
								End Site
								{
									OFFSET 0.000000 8.688499 0.000000
								}
							}
						}
						JOINT newVegas:Right_CapeB
						{
							OFFSET -26.118187 -8.608795 -7.079266
							CHANNELS 3 Xrotation Yrotation Zrotation
							JOINT newVegas:Right_CapeB1
							{
								OFFSET 0.000000 -8.688499 0.000000
								CHANNELS 3 Xrotation Yrotation Zrotation
								End Site
								{
									OFFSET 0.000000 8.688499 0.000000
								}
							}
						}
					}
				}
				JOINT newVegas:Left_Collar
				{
					OFFSET 18.625099 8.655502 8.828100
					CHANNELS 3 Xrotation Yrotation Zrotation
					JOINT newVegas:Left_Collar1
					{
						OFFSET 14.783401 10.540405 -1.259500
						CHANNELS 3 Xrotation Yrotation Zrotation
						End Site
						{
							OFFSET 0.000000 18.199875 0.000000
						}
					}
				}
				JOINT newVegas:Collar_Back
				{
					OFFSET 0.000000 15.630707 -20.132601
					CHANNELS 3 Xrotation Yrotation Zrotation
					End Site
					{
						OFFSET 0.000000 22.523010 0.000000
					}
				}
				JOINT newVegas:Left_Peck
				{
					OFFSET 17.239599 -5.132599 25.482599
					CHANNELS 3 Xrotation Yrotation Zrotation
					End Site
					{
						OFFSET 0.000000 22.523010 0.000000
					}
				}
				JOINT newVegas:Right_Peck
				{
					OFFSET -17.239599 -5.132202 25.482599
					CHANNELS 3 Xrotation Yrotation Zrotation
					End Site
					{
						OFFSET 0.000000 22.523010 0.000000
					}
				}
				JOINT newVegas:Right_Collar
				{
					OFFSET -18.625099 8.655792 8.828100
					CHANNELS 3 Xrotation Yrotation Zrotation
					JOINT newVegas:Right_Collar1
					{
						OFFSET -14.783401 10.539993 -1.259500
						CHANNELS 3 Xrotation Yrotation Zrotation
						End Site
						{
							OFFSET 0.000000 18.199631 0.000000
						}
					}
				}
			}
		}
		JOINT newVegas:Belly
		{
			OFFSET 0.000000 -6.540398 9.014299
			CHANNELS 3 Xrotation Yrotation Zrotation
			End Site
			{
				OFFSET 0.000000 11.566666 0.000000
			}
		}
	}
	JOINT newVegas:ElvisFacialAnim_Joint
	{
		OFFSET 1.000000 -95.330101 -8.825800
		CHANNELS 3 Xrotation Yrotation Zrotation
		End Site
		{
			OFFSET 0.000000 35.315800 0.000000
		}
	}
}
MOTION
Frames: 4
Frame Time: 0.033333
1.509256 79.663948 4.596745 -1.498568 34.523137 6.029746 0.000000 -0.000001 0.000001 -31.957099 16.297711 -2.449004 70.782883 5.788345 10.603974 -37.758433 0.851946 -5.921688 0.000000 0.000000 0.000000 -0.000000 -0.000002 0.000000 -44.458958 -0.832362 -17.851736 87.897035 8.092161 -4.552272 13.170715 5.212761 29.136942 -0.000002 0.000000 -0.000000 0.000002 -0.000000 0.000003 12.980614 11.181966 -6.583289 2.747271 3.205869 -2.286161 2.781666 3.170127 -2.305283 -1.846310 0.562347 1.165706 -1.846312 0.562338 1.165709 0.000001 0.000000 -0.000000 -1.846306 0.562363 1.165705 -1.846312 0.562336 1.165709 0.000000 -0.000002 -0.000000 0.000001 0.000000 -0.000000 0.019246 1.247453 -5.846145 7.220847 -29.437511 -40.712002 -0.000003 -68.298996 -0.000012 -8.733590 12.717897 10.133680 -1.540043 3.690181 6.142368 3.939049 7.948720 0.746803 0.000001 -0.000006 -0.000003 0.004059 0.236484 -1.959931 0.003885 0.231974 -1.922556 0.000000 -0.000002 0.000000 0.003992 0.234554 -1.943948 0.003962 0.233900 -1.938528 -0.000001 0.000001 -0.000002 0.004052 0.236488 -1.959940 0.003893 0.231970 -1.922544 0.000001 -0.000001 0.000001 0.124891 4.288975 -1.454296 -0.012102 -3.822329 -2.433184 -0.000001 -0.000002 0.000002 -0.000002 0.000000 -0.000003 -0.000002 0.000000 -0.000003 -0.000002 -0.000000 -0.000004 0.000001 0.000000 -0.000001 0.000001 -0.000001 -0.000000 0.000001 0.000000 -0.000001 0.000002 -0.000001 -0.000001 -2.009232 -13.351422 8.910678 29.197307 50.277104 26.935102 -0.000011 65.319879 -0.000002 15.425444 -17.461642 -16.630095 -1.849253 -3.581781 -6.586150 4.637206 -8.634122 -0.225398 0.000001 -0.000001 -0.000004 0.025937 -0.601289 4.940333 0.025946 -0.601293 4.940339 0.000002 -0.000002 -0.000001 0.025943 -0.601297 4.940333 0.025949 -0.601284 4.940339 -0.000000 0.000002 -0.000001 0.025939 -0.601291 4.940334 0.025942 -0.601299 4.940339 0.000003 -0.000001 0.000001 0.025936 -0.601289 4.940334 0.025942 -0.601295 4.940342 -0.000002 -0.000002 0.000006 -0.000002 -0.000001 0.000002 -0.000001 -0.000002 0.000001 -0.000002 -0.000001 0.000002 -0.000001 -0.000001 -0.000001 -0.000000 -0.000002 -0.000001 -0.000001 -0.000001 -0.000001 -0.000000 -0.000002 -0.000001 0.000000 -0.000003 0.000001 0.000000 -0.000003 0.000001 0.000000 -0.000003 0.000001 0.000000 -0.000003 0.000001 0.000000 -0.000003 0.000001 0.000000 -0.000003 0.000001 0.000000 -0.000003 0.000001 0.000000 -0.000001 -0.000000 0.000000 -0.000001 0.000001 
1.803097 81.380341 11.035051 -1.421510 38.519043 3.979933 0.000000 0.000001 -0.000000 -27.155592 11.354182 1.456596 67.137222 5.978792 10.366501 -38.487583 1.227897 -9.677365 0.000000 0.000002 -0.000000 -0.000001 -0.000000 -0.000002 -49.578584 -0.065036 -18.533915 87.463168 5.001666 -5.030629 6.506965 0.199446 27.226891 -0.000002 0.000001 0.000000 -0.000002 -0.000001 0.000001 13.195007 7.898087 -4.500555 2.313264 2.267889 -1.720993 2.332634 2.234023 -1.753600 -1.864835 0.514075 1.391589 -1.864828 0.514067 1.391591 -0.000000 -0.000001 -0.000001 -1.864764 0.514056 1.391592 -1.864907 0.514099 1.391586 -0.000001 0.000002 -0.000000 -0.000000 -0.000001 -0.000000 0.826065 -0.117726 -3.998863 2.035078 -29.760961 -40.416142 0.000021 -68.222880 0.000005 -6.945445 10.615233 7.610695 -1.540048 3.690179 6.142359 3.939051 7.948715 0.746799 0.000001 0.000000 -0.000004 0.005015 0.263398 -2.183213 0.004977 0.262138 -2.172649 -0.000002 0.000002 -0.000001 0.004941 0.261470 -2.167231 0.005056 0.264068 -2.188625 -0.000001 -0.000000 -0.000005 0.005014 0.263405 -2.183203 0.004978 0.262140 -2.172658 -0.000002 -0.000002 -0.000001 0.141693 4.315393 -1.678253 -0.010757 -3.792171 -2.683200 0.000003 -0.000005 -0.000005 0.000003 -0.000003 0.000000 0.000003 -0.000003 0.000000 0.000002 -0.000002 0.000000 0.000000 0.000000 -0.000001 0.000001 -0.000000 -0.000006 0.000000 0.000000 -0.000001 0.000001 0.000000 -0.000000 -1.916980 -14.061847 10.584501 30.189603 47.153502 26.602542 0.000005 68.104527 -0.000003 16.064637 -18.474576 -13.457470 -1.849250 -3.581782 -6.586137 4.637205 -8.634119 -0.225394 0.000002 -0.000003 0.000001 0.023920 -0.577469 4.744008 0.024324 -0.582332 4.784208 -0.000003 -0.000002 0.000001 0.023917 -0.577458 4.744005 0.024326 -0.582333 4.784208 0.000000 -0.000003 0.000001 0.023919 -0.577458 4.744001 0.024323 -0.582336 4.784209 -0.000000 0.000001 0.000001 0.023926 -0.577465 4.744006 0.024308 -0.582325 4.784201 -0.000001 -0.000002 0.000000 0.000000 0.000001 0.000002 0.000000 0.000000 -0.000000 0.000000 0.000000 0.000001 -0.000000 0.000001 -0.000000 -0.000000 0.000002 -0.000001 -0.000000 0.000001 -0.000000 -0.000000 0.000002 0.000000 0.000000 0.000002 -0.000001 0.000000 0.000002 -0.000001 0.000000 0.000002 -0.000001 0.000000 0.000002 -0.000001 0.000000 0.000002 -0.000001 0.000000 0.000002 -0.000001 0.000000 0.000002 -0.000001 0.000001 0.000000 0.000000 0.000000 0.000001 -0.000000 
2.170917 83.458496 17.314903 -0.928596 40.940150 2.230077 -0.000000 0.000001 -0.000000 -22.058574 7.441297 5.463858 61.187041 5.600611 10.232062 -35.966410 1.183084 -13.576521 0.000000 -0.000001 -0.000000 -0.000003 0.000003 -0.000002 -52.118107 -1.051773 -18.139123 79.954263 2.717317 -6.679601 2.492206 -1.154279 22.474780 0.000001 0.000000 0.000000 -0.000002 0.000000 -0.000002 12.551288 5.003975 -3.060256 1.955947 1.411054 -1.062694 1.963286 1.393767 -1.089110 -1.723794 0.651187 1.410983 -1.723799 0.651195 1.410981 0.000001 -0.000000 -0.000001 -1.723792 0.651179 1.410983 -1.723784 0.651254 1.410971 -0.000000 0.000002 -0.000001 0.000001 -0.000000 -0.000000 0.715186 0.045325 -2.776438 -1.861869 -31.816790 -41.273293 0.000012 -68.791446 0.000005 -6.669637 3.225911 7.740549 -1.540044 3.690181 6.142364 3.939048 7.948715 0.746804 0.000001 -0.000001 -0.000001 0.008552 0.343795 -2.849987 0.008581 0.344439 -2.855453 0.000005 0.000001 0.000004 0.008460 0.341870 -2.834006 0.008675 0.346369 -2.871427 0.000000 -0.000003 0.000000 0.008555 0.343801 -2.849985 0.008588 0.344448 -2.855443 0.000001 -0.000001 0.000001 0.192484 4.393929 -2.347170 -0.006398 -3.709906 -3.365695 -0.000001 -0.000005 -0.000002 0.000003 -0.000001 -0.000003 0.000003 -0.000001 -0.000003 0.000002 -0.000000 -0.000003 -0.000000 -0.000001 0.000000 -0.000000 -0.000000 -0.000003 -0.000000 -0.000001 0.000000 -0.000001 -0.000001 0.000001 -1.928191 -13.776562 10.000205 29.771432 42.969208 29.964651 -0.000022 70.728644 0.000036 15.162366 -17.741263 -12.641348 -1.849249 -3.581781 -6.586138 4.637202 -8.634122 -0.225397 -0.000000 -0.000002 -0.000001 0.021985 -0.553602 4.547548 0.022488 -0.559986 4.600178 -0.000003 -0.000001 -0.000001 0.021983 -0.553605 4.547548 0.022485 -0.559981 4.600180 0.000000 0.000001 -0.000003 0.021987 -0.553594 4.547544 0.022495 -0.559999 4.600182 -0.000003 0.000002 0.000000 0.021980 -0.553595 4.547544 0.022489 -0.559987 4.600185 -0.000000 0.000005 -0.000004 -0.000000 0.000001 0.000002 -0.000000 -0.000003 0.000001 -0.000000 0.000001 -0.000000 0.000000 0.000001 0.000001 -0.000000 0.000002 0.000002 0.000000 0.000001 0.000001 0.000000 0.000002 0.000001 -0.000001 -0.000000 -0.000000 -0.000001 -0.000000 -0.000000 -0.000001 -0.000000 -0.000000 -0.000001 -0.000000 -0.000000 -0.000001 -0.000000 -0.000000 -0.000001 -0.000000 -0.000000 -0.000001 -0.000000 -0.000000 0.000000 0.000002 -0.000001 -0.000000 0.000001 -0.000000 
2.492498 85.752357 23.628651 -0.167751 42.001142 0.956219 0.000000 -0.000003 -0.000000 -17.213419 4.974350 8.693882 54.155610 5.080500 10.383605 -29.949792 0.979772 -16.302680 -0.000000 0.000003 -0.000000 -0.000000 0.000001 0.000000 -51.749143 -3.064887 -16.816694 67.941306 0.708126 -8.890338 -0.837751 -1.238500 15.958681 0.000000 0.000002 -0.000000 0.000001 -0.000001 0.000001 11.591764 2.630434 -2.014719 1.656182 0.709424 -0.543799 1.658971 0.705412 -0.558691 -1.616182 0.856818 1.341642 -1.616181 0.856837 1.341638 -0.000000 -0.000001 0.000000 -1.616110 0.856806 1.341645 -1.616184 0.856805 1.341644 -0.000000 -0.000003 -0.000000 -0.000000 -0.000001 0.000001 0.244350 0.947070 -2.667115 -4.227384 -33.500702 -41.764780 0.000038 -70.876258 0.000038 -7.025263 -0.139292 8.165516 -1.540044 3.690174 6.142368 3.939051 7.948721 0.746805 -0.000001 -0.000003 -0.000005 0.016652 0.479453 -3.976188 0.016726 0.480693 -3.986648 -0.000005 0.000004 -0.000003 0.016515 0.477532 -3.960202 0.016854 0.482625 -4.002624 -0.000002 -0.000001 -0.000002 0.016645 0.479450 -3.976192 0.016725 0.480700 -3.986644 0.000001 -0.000001 -0.000000 0.280358 4.525180 -3.477278 0.002975 -3.573715 -4.496252 0.000001 -0.000005 0.000002 0.000004 0.000000 -0.000000 0.000004 0.000000 -0.000000 0.000003 0.000000 -0.000000 -0.000001 0.000001 -0.000002 -0.000001 0.000002 -0.000004 -0.000001 0.000001 -0.000002 -0.000001 0.000001 -0.000002 -1.987813 -12.979692 8.192994 29.195780 39.683064 34.261103 -0.000027 72.474885 0.000013 14.576030 -16.958648 -12.270148 -1.849247 -3.581779 -6.586138 4.637208 -8.634119 -0.225394 0.000000 -0.000005 0.000003 0.020375 -0.532943 4.377543 0.020770 -0.538174 4.420568 -0.000001 -0.000003 -0.000000 0.020370 -0.532926 4.377545 0.020780 -0.538181 4.420566 0.000002 -0.000002 -0.000001 0.020373 -0.532929 4.377548 0.020774 -0.538184 4.420575 0.000000 0.000002 -0.000002 0.020368 -0.532936 4.377546 0.020776 -0.538175 4.420575 0.000001 0.000002 -0.000001 0.000002 -0.000000 0.000000 0.000001 -0.000001 -0.000000 0.000002 -0.000001 0.000000 0.000000 0.000000 -0.000000 -0.000000 0.000001 -0.000000 0.000000 0.000000 -0.000000 -0.000000 0.000001 -0.000000 -0.000000 0.000001 -0.000000 -0.000000 0.000001 -0.000000 -0.000000 0.000001 -0.000000 -0.000000 0.000001 -0.000000 -0.000000 0.000001 -0.000000 -0.000000 0.000001 -0.000000 -0.000000 0.000001 -0.000000 0.000001 -0.000000 0.000000 0.000000 -0.000003 -0.000000 
